# xmcd CD database file
#
# Track frame offsets:
#	150
#	27749
#	50765
#	73836
#
# Disc length: 1372 seconds
#
# Revision: 0
# Processed by: cddbd v1.5.1PL2 Copyright (c) Steve Scherf et al.
# Submitted via: CDex 1.51
#
DISCID=3c055a04
DTITLE=Kompute Musik 14 - Komputemusik.com sampler 14
DYEAR=2005
DGENRE=Salsa
TTITLE0=Dirty Criminals - Jak The Box
TTITLE1=Mt. Sims - The Blame
TTITLE2=Billy Dalessandro - Bad Behavior
TTITLE3=Billy Dalessandro - Time For Livin
EXTD=YEAR: 2005
EXTT0=
EXTT1=
EXTT2=
EXTT3=
PLAYORDER=
